<?xml version="1.0" encoding="UTF-8"?>
<svg width="32px" height="32px" viewBox="0 0 32 32" version="1.1" xmlns="http://www.w3.org/2000/svg" xmlns:xlink="http://www.w3.org/1999/xlink">
    <title>logo</title>
    <defs>
        <rect id="path-1" x="0" y="0" width="32" height="32"></rect>
    </defs>
    <g id="海外版" stroke="none" stroke-width="1" fill="none" fill-rule="evenodd">
        <g id="海外版首页-黑色版" transform="translate(-360.000000, -76.000000)">
            <g id="logo" transform="translate(360.000000, 76.000000)">
                <mask id="mask-2" fill="white">
                    <use xlink:href="#path-1"></use>
                </mask>
                <g id="蒙版"></g>
                <g id="编组备份-2" mask="url(#mask-2)">
                    <g transform="translate(4.000000, 3.000000)" id="编组">
                        <path d="M11.3245588,0.169356076 C11.7000503,-0.0564520253 12.2257383,-0.0564520253 12.6012298,0.169356076 C12.6895807,0.213632178 13.3496142,0.500486479 14.3214744,0.931272212 L14.7262334,1.11102902 C15.7766278,1.57844275 17.1042016,2.176635 18.4490992,2.80695902 L18.9873662,3.0605685 C19.077026,3.10304441 19.1666089,3.14560468 19.2560377,3.18822007 L19.790147,3.44434005 C21.0292159,4.04240553 22.2079213,4.63981724 23.1149909,5.15637172 C23.5655807,5.38217982 23.7908756,5.83379602 23.8659739,6.28541222 C24.6920551,14.2639651 21.5379268,19.3822821 18.8343882,22.242518 C15.8304564,25.4038314 12.6763281,26.6081413 12.5261315,26.6834107 C12.3759349,26.75868 12.15064,26.75868 12.0004434,26.75868 L11.9025153,26.7580779 C11.7631328,26.7556693 11.5949127,26.7436262 11.4747554,26.6834107 C11.3245588,26.6081413 -1.44215122,21.5650938 0.134912957,6.28541222 C0.210011274,5.83379602 0.435306157,5.38217982 0.885895921,5.15637172 C1.98733756,4.52912698 3.48095918,3.78265909 4.99405074,3.06056848 L5.52828459,2.80695901 L5.52828459,2.80695901 L6.06049395,2.55677692 C8.71041055,1.31677327 11.1478569,0.257908279 11.3245588,0.169356076 Z M11.9204487,2.34952153 C10.0769711,3.12199264 5.18102778,5.27470874 2.14006961,6.91585708 C1.8915419,10.4889675 2.47720212,13.4167974 3.47890727,15.7946409 C3.49518386,13.5143096 4.81507685,11.2743094 7.39544474,10.3138389 C6.77822238,10.0904156 6.02680541,9.94166046 5.14119385,9.86757359 C6.70868232,9.55376537 8.11768874,9.4483831 9.36821311,9.55142675 C8.36030687,8.72812006 7.5314633,7.42773378 6.88168239,5.65026791 C9.89074691,8.47929335 12.6237128,9.94503231 15.0805799,10.0474848 C16.3148045,12.428073 17.7789245,12.4604527 18.0084463,11.5504603 C19.2089213,12.6489395 21.4076232,14.8808362 16.6311286,15.7703987 C17.5796029,14.6899774 13.7308818,13.3962632 10.9629403,15.0281123 C11.7788005,13.6325652 10.4556279,12.9110924 7.99964208,14.2228872 C5.08648569,15.7788667 5.5967979,19.2870257 7.15185029,21.2154968 C9.05607931,23.1085485 10.9844911,24.1730241 11.9204487,24.640259 C14.3039024,23.4914551 22.6048964,18.732125 21.7830158,6.91585708 C20.8137635,6.40653518 19.6817273,5.85283911 18.5237248,5.30675695 L17.7493777,4.94440067 C15.4238043,3.86413888 13.1159812,2.86054431 11.9204487,2.34952153 Z M13.052125,10.7769453 L13.9136872,11.7575795 L15.2321635,11.8920561 L14.4046331,10.9797213 L13.052125,10.7769453 Z M9.90728826,4.35868004 C10.7259973,5.96450624 12.1376159,7.53116942 14.1421443,9.05866958 C12.6680272,8.73874244 11.710769,8.36073392 11.2703697,7.92464404 C10.6097708,7.27050921 10.0576175,5.33553424 9.90728826,4.35868004 Z" id="形状结合" fill="#FFFFFF"></path>
                    </g>
                </g>
            </g>
        </g>
    </g>
</svg>